<?xml version="1.0" encoding="utf-8"?>
<!-- Generator: Adobe Illustrator 22.0.1, SVG Export Plug-In . SVG Version: 6.00 Build 0)  -->
<svg version="1.1" id="Layer_1" xmlns="http://www.w3.org/2000/svg" xmlns:xlink="http://www.w3.org/1999/xlink" x="0px" y="0px"
	 viewBox="0 0 550 450" style="enable-background:new 0 0 550 450;" xml:space="preserve">
<style type="text/css">
	.st0{fill:#FFFFFF;}
	.st1{fill:none;stroke:#FFFFFF;stroke-miterlimit:10;}
	.st2{fill:none;stroke:#672ED6;stroke-width:0.75;stroke-linecap:round;stroke-linejoin:round;stroke-miterlimit:10;}
	.st3{fill:none;stroke:#DB7294;stroke-width:0.75;stroke-linecap:round;stroke-linejoin:round;stroke-miterlimit:10;}
	.st4{fill:none;stroke:#EEDA36;stroke-width:0.75;stroke-linecap:round;stroke-linejoin:round;stroke-miterlimit:10;}
	.st5{fill:#D96980;}
	.st6{fill:#E4B0C8;}
	.st7{fill:none;stroke:#D96980;stroke-miterlimit:10;}
	.st8{fill:none;stroke:#9E88E5;stroke-miterlimit:10;}
	.st9{fill:none;stroke:#672ED6;stroke-miterlimit:10;}
	.st10{fill:#672ED6;}
	.st11{fill:none;stroke:#EEDA36;stroke-miterlimit:10;}
	.st12{fill:#EEDA36;}
	.st13{fill:none;stroke:#D7D4FC;stroke-miterlimit:10;}
	.st14{fill:none;stroke:#C1C0FF;stroke-miterlimit:10;stroke-dasharray:4;}
	.st15{fill:#5567FF;}
	.st16{clip-path:url(#SVGID_2_);}
	.st17{fill:#FFFFFF;stroke:#000000;stroke-miterlimit:10;}
	.st18{fill:none;stroke:#1C191B;stroke-miterlimit:10;}
	.st19{fill:#FFFFFF;stroke:#1C191B;stroke-miterlimit:10;}
	.st20{fill:#EEDA36;stroke:#000000;stroke-miterlimit:10;}
	.st21{fill:#EEDA36;stroke:#1C191B;stroke-miterlimit:10;}
	.st22{fill:none;stroke:#020202;stroke-miterlimit:10;}
	.st23{fill:none;stroke:#0C0C0C;stroke-miterlimit:10;}
	.st24{fill:#DB7294;}
	.st25{fill:none;stroke:#000000;stroke-miterlimit:10;}
	.st26{fill:none;}
	.st27{fill:#DB7294;stroke:#000000;stroke-miterlimit:10;}
	.st28{stroke:#1C191B;stroke-miterlimit:10;}
	.st29{fill:#0C0C0C;}
	.st30{fill:#FFF7F7;stroke:#0C0C0C;stroke-miterlimit:10;}
	.st31{clip-path:url(#SVGID_4_);}
	.st32{fill:none;stroke:#000000;stroke-width:2;stroke-miterlimit:10;}
	.st33{fill:#672ED6;stroke:#211F21;stroke-miterlimit:10;}
	.st34{fill:#141414;}
	.st35{fill:#F7F6F6;}
	.st36{fill:#090909;}
	.st37{clip-path:url(#SVGID_6_);}
	.st38{fill:#672ED6;stroke:#000000;stroke-width:0.909;stroke-miterlimit:10;}
	.st39{fill:#672ED6;stroke:#000000;stroke-width:0.9716;stroke-miterlimit:10;}
	.st40{fill:none;stroke:#000000;stroke-width:1.8801;stroke-miterlimit:10;}
	.st41{fill:#FFFFFF;stroke:#000000;stroke-width:0.94;stroke-miterlimit:10;}
	.st42{fill:#FFF7F7;}
	.st43{fill:#020202;}
	.st44{fill:#EEDA36;stroke:#000000;stroke-width:0.94;stroke-miterlimit:10;}
	.st45{fill:none;stroke:#000000;stroke-width:0.94;stroke-miterlimit:10;}
	.st46{clip-path:url(#SVGID_8_);}
	.st47{fill:#E4B0C8;stroke:#020106;stroke-miterlimit:10;}
	.st48{fill:#DB7294;stroke:#020106;stroke-miterlimit:10;}
	.st49{fill:none;stroke:#020106;stroke-miterlimit:10;}
	.st50{fill:#FFFFFF;stroke:#020106;stroke-miterlimit:10;}
	.st51{fill:#672ED6;stroke:#000000;stroke-miterlimit:10;}
	.st52{fill:#9E88E5;}
	.st53{fill:none;stroke:#DB7294;stroke-miterlimit:10;}
	.st54{fill:none;stroke:#DB7294;stroke-miterlimit:10;stroke-dasharray:3.9573,3.9573;}
	.st55{clip-path:url(#SVGID_10_);}
	.st56{fill:#FEFEFF;stroke:#000000;stroke-miterlimit:10;}
	.st57{fill:none;stroke:#000000;}
	.st58{font-family:'Montserrat-ExtraBold';}
	.st59{font-size:26.6396px;}
</style>
<g>
	<g>
		<g>
			<g>
				<path class="st0" d="M215,374.4l2.5,2.4c1.3-1.3,3.1-2,4.9-2c1.9,0,3.6,0.7,4.9,2l2.5-2.4c-2-1.9-4.6-3-7.4-3
					C219.7,371.4,217,372.5,215,374.4z"/>
				<path class="st0" d="M211,370.4l2.5,2.4c2.4-2.4,5.6-3.7,9-3.7s6.6,1.3,9,3.7l2.5-2.4c-3.1-3-7.1-4.7-11.5-4.7
					C218.1,365.7,214,367.4,211,370.4z"/>
				<path class="st0" d="M222.4,360.1c-5.9,0-11.4,2.2-15.5,6.3l2.5,2.4c3.5-3.4,8.1-5.3,13.1-5.3s9.6,1.9,13.1,5.3l2.5-2.4
					C233.8,362.3,228.3,360.1,222.4,360.1z"/>
				<path class="st0" d="M222.4,376.8c-1.6,0-3,1.3-3,2.9s1.3,2.9,3,2.9c1.6,0,3-1.3,3-2.9C225.4,378.1,224.1,376.8,222.4,376.8z"/>
			</g>
			<g>
				<path class="st1" d="M271.6,149.6l2.5,2.4c1.3-1.3,3.1-2,4.9-2c1.9,0,3.6,0.7,4.9,2l2.5-2.4c-2-1.9-4.6-3-7.4-3
					S273.5,147.6,271.6,149.6z"/>
				<path class="st1" d="M267.5,145.6l2.5,2.4c2.4-2.4,5.6-3.7,9-3.7s6.6,1.3,9,3.7l2.5-2.4c-3.1-3-7.1-4.7-11.5-4.7
					C274.6,140.9,270.5,142.6,267.5,145.6z"/>
				<path class="st1" d="M279,135.3c-5.9,0-11.4,2.2-15.5,6.3l2.5,2.4c3.5-3.4,8.1-5.3,13.1-5.3s9.6,1.9,13.1,5.3l2.5-2.4
					C290.3,137.5,284.8,135.3,279,135.3z"/>
				<ellipse class="st1" cx="279" cy="154.9" rx="3" ry="2.9"/>
			</g>
			<g>
				<line class="st2" x1="323.1" y1="249.9" x2="323.1" y2="257.3"/>
				<line class="st2" x1="319.3" y1="253.6" x2="326.9" y2="253.6"/>
			</g>
			<g>
				<line class="st3" x1="49.1" y1="321.5" x2="49.1" y2="329"/>
				<line class="st3" x1="45.3" y1="325.3" x2="52.9" y2="325.3"/>
			</g>
			<g>
				<line class="st3" x1="113.5" y1="370.4" x2="113.5" y2="377.8"/>
				<line class="st3" x1="109.7" y1="374.1" x2="117.3" y2="374.1"/>
			</g>
			<g>
				<line class="st3" x1="555.3" y1="311" x2="555.3" y2="318.4"/>
				<line class="st3" x1="551.5" y1="314.7" x2="559.2" y2="314.7"/>
			</g>
			<g>
				<line class="st3" x1="212.7" y1="145.5" x2="212.7" y2="153"/>
				<line class="st3" x1="208.9" y1="149.3" x2="216.5" y2="149.3"/>
			</g>
			<g>
				<line class="st2" x1="56.2" y1="116.6" x2="56.2" y2="124.1"/>
				<line class="st2" x1="52.4" y1="120.3" x2="60" y2="120.3"/>
			</g>
			<g>
				<line class="st4" x1="95.4" y1="243.5" x2="95.4" y2="251"/>
				<line class="st4" x1="91.6" y1="247.2" x2="99.2" y2="247.2"/>
			</g>
			<g>
				<line class="st4" x1="248.5" y1="338.6" x2="248.5" y2="346"/>
				<line class="st4" x1="244.7" y1="342.3" x2="252.3" y2="342.3"/>
			</g>
			<ellipse class="st4" cx="178.2" cy="148" rx="2.6" ry="2.6"/>
			<g>
				<ellipse class="st5" cx="518.1" cy="322.4" rx="16.8" ry="16.4"/>
				<g>
					<rect x="508.5" y="315.4" class="st1" width="19.7" height="14.5"/>
					<polyline class="st1" points="508.5,315.4 518.3,324.3 528.2,315.4 					"/>
				</g>
			</g>
			<g>
				<ellipse class="st6" cx="45.3" cy="360.9" rx="13.9" ry="13.6"/>
				<g>
					<rect x="37.4" y="355.2" class="st1" width="16.3" height="12"/>
					<polyline class="st1" points="37.4,355.2 45.5,362.5 53.7,355.2 					"/>
				</g>
			</g>
			<g>
				<ellipse class="st6" cx="199.2" cy="126.1" rx="8.8" ry="8.7"/>
				<g>
					<rect x="194.2" y="122.4" class="st1" width="10.4" height="7.6"/>
					<polyline class="st1" points="194.2,122.4 199.3,127.1 204.5,122.4 					"/>
				</g>
			</g>
			<polygon class="st5" points="113.5,216.7 115.9,220.8 118.3,224.8 113.5,224.8 108.7,224.8 111.1,220.8 			"/>
			<polygon class="st7" points="319.7,335.3 325.1,340 330.6,344.7 323.7,347 316.8,349.2 318.2,342.3 			"/>
			<polygon class="st7" points="15.3,116.8 13.4,123.6 11.5,130.5 6.4,125.5 1.3,120.4 8.3,118.6 			"/>
			<polygon class="st8" points="555.3,350.3 553.7,356.3 552,362.2 547.6,357.9 543.2,353.5 549.3,351.9 			"/>
			<path class="st7" d="M167.8,356.3c0,2.1-1.8,3.8-3.9,3.8c-2.2,0-3.9-1.7-3.9-3.8c0-2.1,1.8-3.8,3.9-3.8
				C166,352.4,167.8,354.2,167.8,356.3z"/>
			<path class="st7" d="M308,107.7c0,3-2.5,5.4-5.5,5.4s-5.5-2.4-5.5-5.4s2.5-5.4,5.5-5.4C305.5,102.3,308,104.7,308,107.7z"/>
			<path class="st5" d="M198.7,253.2c0,1.9-1.6,3.4-3.5,3.4s-3.5-1.5-3.5-3.4s1.6-3.4,3.5-3.4C197.1,249.7,198.7,251.3,198.7,253.2z
				"/>
			<path class="st5" d="M311.5,373.6c0,1.9-1.6,3.4-3.5,3.4s-3.5-1.5-3.5-3.4s1.6-3.4,3.5-3.4S311.5,371.7,311.5,373.6z"/>
			<path class="st6" d="M206.1,323c0,1.1-0.9,2-2.1,2c-1.2,0-2.1-0.9-2.1-2s0.9-2,2.1-2C205.2,320.9,206.1,321.8,206.1,323z"/>
			<ellipse class="st7" cx="477.4" cy="373.6" rx="6.2" ry="6.1"/>
			<ellipse class="st9" cx="377.6" cy="265.8" rx="5.4" ry="5.3"/>
			<ellipse class="st9" cx="18.3" cy="303.3" rx="4.9" ry="4.8"/>
			<path class="st10" d="M535.3,262.6c0,2.3-1.9,4.1-4.2,4.1s-4.2-1.9-4.2-4.1c0-2.3,1.9-4.1,4.2-4.1
				C533.4,258.5,535.3,260.3,535.3,262.6z"/>
			<path class="st9" d="M288,361.6c0,2.3-1.9,4.1-4.2,4.1s-4.2-1.9-4.2-4.1c0-2.3,1.9-4.1,4.2-4.1S288,359.3,288,361.6z"/>
			<path class="st11" d="M486.3,345.6c0,0,7-0.7,8.9,3.7c1.8,4.3,2.6,8.5,13.6,3.2"/>
			<path class="st11" d="M24.3,163.7c0,0-0.9,6.3-5.3,6.9c-4.4,0.7-8.4,0.4-5.9,11.2"/>
			<path class="st11" d="M238,109.8c0,0,7-0.7,8.9,3.7c1.8,4.3,2.6,8.5,13.6,3.2"/>
			<path class="st12" d="M271.9,207.9c0,1.7-1.4,3.1-3.2,3.1c-1.7,0-3.2-1.4-3.2-3.1c0-1.7,1.4-3.1,3.2-3.1
				C270.4,204.7,271.9,206.1,271.9,207.9z"/>
			<ellipse class="st13" cx="101.2" cy="109.2" rx="4" ry="3.9"/>
		</g>
		<g>
			<path class="st14" d="M72.9,300.7c-39.7,0-72-29.9-72-66.9c0-26.1,16.1-48.7,39.6-59.7"/>
			<path class="st14" d="M228.3,316.2c2.9,26.1-17.2,49.8-44.9,52.7c-27.7,3-52.5-15.8-55.5-42"/>
			<ellipse class="st14" cx="286.2" cy="141.7" rx="49" ry="47"/>
			<ellipse class="st14" cx="136.1" cy="205.4" rx="46.8" ry="44.8"/>
			<ellipse class="st14" cx="350.4" cy="270.8" rx="45.9" ry="41.5"/>
		</g>
	</g>
	<g>
		<g>
			<g>
				<g>
					<path class="st15" d="M179.7,345.6H74c-5.2,0-9.3-4.2-9.3-9.3V271c0-5.2,4.2-9.3,9.3-9.3h105.6c5.2,0,9.3,4.2,9.3,9.3v65.2
						C189,341.4,184.8,345.6,179.7,345.6z"/>
					<g>
						<path class="st0" d="M171.4,330.5H82.3c-5.2,0-9.3-4.2-9.3-9.3V276c0-5.2,4.2-9.3,9.3-9.3h89.2c5.2,0,9.3,4.2,9.3,9.3v45.2
							C180.8,326.3,176.6,330.5,171.4,330.5z"/>
						<path d="M105.2,295.8c0,0-5.9,18.1,6.1,22.1s13.3,0.7,16,6.9c2.7,6.2,13.3,3.5,14.3-6.1s-6.2-8.8-10-9.3s-6.3-7.3-6.2-10.8
							C125.4,295.1,106.5,288.4,105.2,295.8z"/>
						<g>
							<g>
								<g>
									<defs>
										<path id="SVGID_1_" d="M171.4,330.5H82.3c-5.2,0-9.3-4.2-9.3-9.3V276c0-5.2,4.2-9.3,9.3-9.3h89.2c5.2,0,9.3,4.2,9.3,9.3
											v45.2C180.8,326.3,176.6,330.5,171.4,330.5z"/>
									</defs>
									<clipPath id="SVGID_2_">
										<use xlink:href="#SVGID_1_"  style="overflow:visible;"/>
									</clipPath>
									<g class="st16">
										<g>
											<path class="st17" d="M118.4,312.7c0,0,12.8,0.8,25.9,12.9c13.2,12.1,12.8,43.3,12.8,43.3l-39.3-1L118.4,312.7z"/>
											<g>
												<path class="st0" d="M131.9,323.1c8.8,6.4,26.7,44.7,21,44.9c-5.7,0.1-73.6-0.4-75.7-2.5s7.1-20.3,7.1-20.3
													s14.3-28.7,36.4-28.9C128.1,316.2,122.5,316.2,131.9,323.1z"/>
												<path class="st18" d="M95.8,346.6c0,0-6.2,17.1-4.8,19c1.4,1.9,47.1,2.4,51,2.3c3.8-0.1-2.7-27-5.9-34.8"/>
											</g>
										</g>
										<g>
											<path class="st19" d="M119.7,355.6c0,0,5.1-3.4,18.4-0.2c0,0,2.6,1.1,0.6,1.6s-6.9-0.3-6.9-0.3s7.6,0.7,7.8,2
												s-7.2,0-7.2,0s7.9,1.2,7.8,2.5c-0.1,1.3-4.5-0.2-8.8,0.1c-4.3,0.3-12.1,3.4-13.3,2.5C117,363.2,114.3,357.6,119.7,355.6z
												"/>
											<g>
												<path class="st17" d="M115.5,312.7c-7.9,0.1-16.6,2.5-25,9.2c-11.5,9.2-30.9,38-22.4,52.8c8.5,14.9,28.1,9.1,34.8,6.1
													c6.8-3,20-12.9,21.5-17c1.7-4.8,1-8.1-5.2-9.6c-6.1-1.5-28.5,0.8-32.9,3.6"/>
												<path class="st20" d="M124.3,363.8c1.7-4.7,1-8-4.8-9.5c-0.3,1.5-0.4,3.3-0.2,5.2c0.4,3.2,1.5,5.9,2.8,7.3
													C123.3,365.6,124.1,364.6,124.3,363.8z"/>
											</g>
										</g>
										<path class="st21" d="M105.9,335.9c0,0-6.7-4.8-4.1-7s4.8,2.4,4.8,2.4s1.6-4,3.8-2.7C112.6,329.9,105.9,335.9,105.9,335.9
											z"/>
									</g>
								</g>
							</g>
						</g>
						<g>
							<path class="st21" d="M122.6,315.4c0,2.3-3.2,4.1-7.2,4.1s-7.2-1.8-7.2-4.1c0-2.3,3.2-4.1,7.2-4.1S122.6,313.1,122.6,315.4z"
								/>
							<path class="st17" d="M102.1,295.8c0,2.9,2.4,5.2,5.3,5.2s5.3-2.3,5.3-5.2c0-2.9-2.4-5.2-5.3-5.2S102.1,292.9,102.1,295.8z"
								/>
							<path class="st17" d="M124.3,280.7H118c-4.2,0-7.6,3.8-7.6,8.5v9.6c0,0.3,0,0.5,0,0.8c-0.1,0.3-0.1,0.6-0.1,0.9v5.8v0.3v5.8
								c0,2.1,1.8,3.8,3.9,3.8h2.5c2.2,0,3.9-1.7,3.9-3.8v-5.2h3.6c4.2,0,7.6-3.8,7.6-8.5v-9.6C131.9,284.5,128.5,280.7,124.3,280.7
								z"/>
							<g>
								<g>
									<path d="M109.8,293.5c0,0,6.2-2,8.1-5.9s1.4-4.8,1.4-4.8s3.5,4.7,9,5.8c4.5,0.9,4.4,0.3,4.8-0.7c0.4-0.9,0.7-7.5-6.2-11.6
										c-6.9-4.1-14.3-3.7-19.5,1.4c-5.1,5.1-4.5,13-2.8,15C106.4,294.7,108.6,295.8,109.8,293.5z"/>
								</g>
								<ellipse cx="107.4" cy="268.6" rx="6.2" ry="6"/>
							</g>
							<g>
								<path class="st0" d="M102.4,295.8c0,2.7,2.2,4.9,5,4.9s5-2.2,5-4.9c0-2.7-2.2-4.9-5-4.9S102.4,293.1,102.4,295.8z"/>
								<path class="st22" d="M110.1,296.4c0,0,0.2-3.3-3.3-2.9"/>
							</g>
							<g>
								<g>
									<ellipse cx="120.7" cy="292.3" rx="1.4" ry="1.4"/>
									<path d="M128.6,292.1c0,0.7,0.5,1.2,1.2,1.2s1.2-0.5,1.2-1.2s-0.5-1.2-1.2-1.2S128.6,291.4,128.6,292.1z"/>
								</g>
								<path class="st23" d="M127.2,297.8c0,0-0.7,2-2.2,2.2s-2.7-1.5-2.8-2.8"/>
								<g>
									<path class="st6" d="M114.3,297.4c0,1.9,1.6,3.5,3.5,3.5c2,0,3.5-1.5,3.5-3.5s-1.6-3.5-3.5-3.5S114.3,295.5,114.3,297.4z"
										/>
									<path class="st6" d="M131,295.1c0.2,0,0.4,0,0.6,0.1v3.6c0,0.5,0,1.1-0.1,1.6c-0.1,0-0.3,0-0.5,0c-1.5,0-2.7-1.2-2.7-2.6
										C128.3,296.2,129.5,295.1,131,295.1z"/>
								</g>
								<polygon class="st24" points="125.6,290.9 125.3,295.6 127.7,294.3 								"/>
							</g>
						</g>
						<path class="st25" d="M171,280.7h-25.4c-2.5,0-4.6-2-4.6-4.5l0,0c0-2.5,2-4.5,4.6-4.5H171c2.5,0,4.6,2,4.6,4.5l0,0
							C175.6,278.7,173.5,280.7,171,280.7z"/>
					</g>
					<path class="st26" d="M171.4,330.5H82.3c-5.2,0-9.3-4.2-9.3-9.3V276c0-5.2,4.2-9.3,9.3-9.3h89.2c5.2,0,9.3,4.2,9.3,9.3v45.2
						C180.8,326.3,176.6,330.5,171.4,330.5z"/>
				</g>
				<g>
					<g>
						<path d="M129.8,337.8c-0.2,3.5-5.5,3.5-5.5,0S129.6,334.4,129.8,337.8c0,0.8,1.3,0.8,1.3,0c-0.1-2.2-1.8-3.9-4-3.9
							c-2.1,0-4,1.8-4,3.9s1.7,3.8,3.8,3.9c2.3,0.1,4.1-1.7,4.2-3.9C131.1,337,129.8,337,129.8,337.8z"/>
					</g>
				</g>
			</g>
			<g>
				<g>
					<g>
						<path class="st15" d="M251.3,232.5h-88.8c-4.3,0-7.9-3.5-7.9-7.9v-54.8c0-4.3,3.5-7.9,7.9-7.9h88.8c4.3,0,7.9,3.5,7.9,7.9
							v54.8C259.2,229,255.7,232.5,251.3,232.5z"/>
						<path class="st0" d="M244.4,219.9h-75c-4.3,0-7.9-3.5-7.9-7.9v-38c0-4.3,3.5-7.9,7.9-7.9h75c4.3,0,7.9,3.5,7.9,7.9v38
							C252.3,216.3,248.7,219.9,244.4,219.9z"/>
						<g>
							<path class="st27" d="M185.4,219.9h42.1c-4.2-5.6-12.1-9.4-21-9.4C197.4,210.5,189.6,214.2,185.4,219.9z"/>
							<g>
								<ellipse class="st28" cx="206.9" cy="211.6" rx="6.9" ry="3.9"/>
								<path class="st17" d="M194.1,192.8c0,2.7,2.3,5,5.1,5s5.1-2.2,5.1-5c0-2.7-2.3-5-5.1-5C196.4,187.8,194.1,190,194.1,192.8z"
									/>
								<path class="st17" d="M215.4,178.2h-6.1c-4,0-7.3,3.7-7.3,8.2v9.2c0,0.3,0,0.5,0,0.8c-0.1,0.3-0.1,0.6-0.1,0.8v5.6v0.3v5.6
									c0,2,1.7,3.7,3.8,3.7h2.4c2.1,0,3.8-1.7,3.8-3.7v-5h3.5c4,0,7.3-3.7,7.3-8.2v-9.2C222.7,181.9,219.4,178.2,215.4,178.2z"/>
								<g>
									<g>
										<path d="M201.5,190.5c0,0,5.9-1.9,7.7-5.7s1.4-4.6,1.4-4.6s3.3,4.5,8.6,5.6c4.4,0.9,4.2,0.3,4.6-0.7
											c0.4-0.9,0.7-7.3-6-11.2c-6.6-3.9-13.8-3.5-18.7,1.3c-4.9,4.9-4.3,12.5-2.7,14.4C198.2,191.7,200.4,192.7,201.5,190.5z"/>
									</g>
									<g>
										<path class="st25" d="M183.6,168.2c0,0-2.6,0.4-2.9,4.3c-0.4,4-2.9,8.7-8.6,9.9c-5.6,1.2-19.1,1.1-19.7-12.5
											c-0.6-13.5,14.9-16.5,19.8-11.6c3.5,3.4,4.5,3.7,6.6-0.2c2.1-4,8.8-7.3,15.3-1.5s1.8,12.3-1.4,13.2
											C189.5,170.9,185.7,166.5,183.6,168.2z"/>
										<ellipse class="st27" cx="199.5" cy="170.3" rx="2.6" ry="2.6"/>
									</g>
								</g>
								<g>
									<path class="st0" d="M194.4,192.8c0,2.6,2.2,4.7,4.8,4.7c2.7,0,4.8-2.1,4.8-4.7c0-2.6-2.2-4.7-4.8-4.7
										C196.6,188.1,194.4,190.2,194.4,192.8z"/>
									<path class="st22" d="M201.8,193.4c0,0,0.2-3.2-3.1-2.8"/>
								</g>
								<g>
									<g>
										<path class="st29" d="M210.6,189.4c0,0.7,0.6,1.3,1.4,1.3s1.4-0.6,1.4-1.3s-0.6-1.3-1.4-1.3S210.6,188.6,210.6,189.4z"/>
										<path class="st29" d="M219.6,189.2c0,0.6,0.5,1.1,1.2,1.1c0.6,0,1.2-0.5,1.2-1.1s-0.5-1.1-1.2-1.1
											C220.1,188,219.6,188.6,219.6,189.2z"/>
									</g>
									<path class="st30" d="M218.2,194.7c0,0-0.7,2-2.1,2.1c-1.5,0.1-2.6-1.4-2.7-2.7L218.2,194.7z"/>
									<g>
										<path class="st6" d="M205.9,194.3c0,1.8,1.5,3.3,3.4,3.3s3.4-1.5,3.4-3.3s-1.5-3.3-3.4-3.3S205.9,192.5,205.9,194.3z"/>
										<path class="st6" d="M221.8,192c0.2,0,0.4,0,0.6,0.1v3.4c0,0.5,0,1-0.1,1.5c-0.1,0-0.3,0-0.5,0c-1.4,0-2.6-1.1-2.6-2.5
											C219.2,193.2,220.4,192,221.8,192z"/>
									</g>
									<polygon class="st24" points="216.7,188 216.4,192.6 218.7,191.3 									"/>
								</g>
							</g>
						</g>
					</g>
					<g>
						<g>
							<path class="st0" d="M209.3,226c-0.2,2.8-4.5,2.8-4.5,0S209.1,223.2,209.3,226c0,0.8,1.3,0.8,1.3,0c-0.1-1.9-1.5-3.4-3.5-3.4
								c-1.9,0-3.5,1.5-3.5,3.4c0,1.8,1.5,3.3,3.3,3.4c2,0.1,3.5-1.5,3.6-3.4C210.6,225.2,209.3,225.2,209.3,226z"/>
						</g>
					</g>
				</g>
			</g>
			<g>
				<g>
					<path class="st15" d="M132.5,201.4H43.7c-4.3,0-7.9-3.5-7.9-7.9v-54.8c0-4.3,3.5-7.9,7.9-7.9h88.8c4.3,0,7.9,3.5,7.9,7.9v54.8
						C140.4,197.8,136.9,201.4,132.5,201.4z"/>
					<g>
						<path class="st0" d="M91.1,194.8c0,1.5-1.3,2.8-2.9,2.8s-2.9-1.2-2.9-2.8c0-1.5,1.3-2.8,2.9-2.8
							C89.8,192,91.1,193.3,91.1,194.8z"/>
					</g>
				</g>
				<g>
					<g>
						<path class="st0" d="M125.6,188.7h-75c-4.3,0-7.9-3.5-7.9-7.9v-38.1c0-4.3,3.5-7.9,7.9-7.9h75c4.3,0,7.9,3.5,7.9,7.9v38.1
							C133.5,185.2,129.9,188.7,125.6,188.7z"/>
						<g>
							<g>
								<g>
									<g>
										<g>
											<defs>
												<path id="SVGID_3_" d="M125.6,188.7h-75c-4.3,0-7.9-3.5-7.9-7.9v-38.1c0-4.3,3.5-7.9,7.9-7.9h75c4.3,0,7.9,3.5,7.9,7.9
													v38.1C133.5,185.2,129.9,188.7,125.6,188.7z"/>
											</defs>
											<clipPath id="SVGID_4_">
												<use xlink:href="#SVGID_3_"  style="overflow:visible;"/>
											</clipPath>
											<g class="st31">
												<g>
													<path class="st17" d="M75.2,174.4c-17,0-30.8,17-30.8,37.9H106C106,191.4,92.2,174.4,75.2,174.4z"/>
													<g>
														<path class="st12" d="M65.6,183.6c0,1.2-1,2.2-2.2,2.2s-2.2-1-2.2-2.2s1-2.2,2.2-2.2S65.6,182.4,65.6,183.6z"/>
														<ellipse class="st12" cx="74.3" cy="191.6" rx="2.4" ry="2.4"/>
														<path class="st12" d="M85.9,183.6c0,1.2-1,2.2-2.2,2.2s-2.2-1-2.2-2.2s1-2.2,2.2-2.2S85.9,182.4,85.9,183.6z"/>
														<ellipse class="st12" cx="94.4" cy="189.1" rx="1.9" ry="1.9"/>
														<path class="st12" d="M58,192.8c0,1.2-1,2.2-2.3,2.2s-2.3-1-2.3-2.2s1-2.2,2.3-2.2S58,191.6,58,192.8z"/>
														<ellipse class="st12" cx="65.5" cy="199.3" rx="2.4" ry="2.4"/>
														<ellipse class="st12" cx="88.1" cy="198.9" rx="2" ry="2"/>
														<path class="st12" d="M100.2,202.8c0,1.1-0.9,1.9-2,1.9s-2-0.9-2-1.9c0-1.1,0.9-1.9,2-1.9
															C99.3,200.9,100.2,201.7,100.2,202.8z"/>
														<path class="st12" d="M55.4,203.7c0,1.1-0.9,2-2.1,2c-1.1,0-2.1-0.9-2.1-2s0.9-2,2.1-2S55.4,202.6,55.4,203.7z"/>
														<path class="st12" d="M79.4,205.8c0,1.1-0.9,2-2.1,2c-1.1,0-2.1-0.9-2.1-2s0.9-2,2.1-2
															C78.4,203.7,79.4,204.7,79.4,205.8z"/>
													</g>
												</g>
												<g>
													<path class="st10" d="M108.4,192.6l0.6-2c0,0,0.1-0.5-0.7-0.8c-0.8-0.3-12.9-4.9-12.9-4.9s-1-0.6-1.3,0.1
														c-0.3,0.7-2.3,3.9-2.3,3.9s-0.6,0.8,0.1,1.2s11.7,4.4,11.7,4.4l2.8,1.1c0,0,0.9,0.3,1-0.1S108.4,192.6,108.4,192.6z"/>
													<path class="st0" d="M111.7,178.5c0,0,1.1-5.5,0.2-6.5s-1.7,0.1-2.2,1.5c-0.4,1.4-1.1,4-1.1,4l-2.8-5.6
														c0,0,6.3-4.5,6.5-5.3s0.3-1.4-0.1-1.4s-1.8,0.3-1.8,0.3s2.1-2,1.5-2.7c-0.7-0.7-3,0.9-3,0.9s0.8-3,0.4-3.6
														s-2.9,2.9-3.7,4.2c-0.7,1.3-2,3.4-2,3.4s-0.8,0.6-0.8,1c0,0.3-1,1.1-1.2,1.3c-0.2,0.1-1.4,2.8-2.7,5.4s-3,6.3-3,6.3
														l-0.9,1.7c0,0-0.9,1.3,1,1.9c1.9,0.5,9.7,3.6,9.7,3.6l2.4,0.9c0,0,0.7,1,1.3-1.3C110.2,186.2,111.7,178.5,111.7,178.5z
														"/>
													<g>
														<path class="st25" d="M106.9,196.9c4.2-11.6,6-23.7,5-25c-1.4-1.7-2.3,1.2-3.3,5.5l-2.8-5.6c0,0,6.8-4.5,6.8-6.3
															s-10.6,3.3-11.6,5.2c-0.6,1.2-4.2,11.2-10.3,19.8"/>
														<path class="st25" d="M109.7,165.7c0,0,2.8-1.7,2.1-2.9c-0.7-1.2-9.1,4.7-8.9,6.2"/>
														<path class="st25" d="M108.6,163.9c0,0,1.7-3.4,0.7-3.8c-1-0.4-4.6,5.2-5,6.9"/>
													</g>
													<g>
														<g>
															<line class="st25" x1="109.1" y1="190.1" x2="94.4" y2="184.6"/>
															<line class="st25" x1="107.2" y1="196.1" x2="91.3" y2="189.7"/>
														</g>
														<g>
															<line class="st25" x1="107.2" y1="189.4" x2="104.9" y2="195.2"/>
															<line class="st25" x1="104.4" y1="188.3" x2="102.1" y2="194.1"/>
															<line class="st25" x1="101.8" y1="187.2" x2="99.5" y2="192.9"/>
															<line class="st25" x1="98.8" y1="186.2" x2="96.8" y2="191.8"/>
															<line class="st25" x1="96.4" y1="185.3" x2="94" y2="190.7"/>
														</g>
													</g>
												</g>
											</g>
										</g>
									</g>
								</g>
								<g>
									<path class="st32" d="M63.1,157.5c0,2.5,2.1,4.5,4.7,4.5s4.7-2,4.7-4.5s-2.1-4.5-4.7-4.5S63.1,155,63.1,157.5z"/>
									<path class="st33" d="M81.9,175.6c0,2.1-3,3.8-6.7,3.8s-6.7-1.7-6.7-3.8s3-3.8,6.7-3.8S81.9,173.5,81.9,175.6z"/>
									<path class="st17" d="M83.4,143.4h-5.9c-3.9,0-7.1,3.5-7.1,7.9v8.9c0,0.3,0,0.5,0,0.7c-0.1,0.3-0.1,0.5-0.1,0.8v5.4v0.3
										v5.4c0,2,1.6,3.6,3.6,3.6h2.3c2,0,3.6-1.6,3.6-3.6V168h3.4c3.9,0,7.1-3.5,7.1-7.9v-8.9C90.5,147,87.3,143.4,83.4,143.4z"/>
									<g>
										<g>
											<path class="st34" d="M78.8,154.2c0,0.7,0.6,1.3,1.3,1.3s1.3-0.6,1.3-1.3s-0.6-1.3-1.3-1.3S78.8,153.5,78.8,154.2z"/>
											<path class="st34" d="M87.4,154c0,0.6,0.5,1.1,1.1,1.1s1.1-0.5,1.1-1.1s-0.5-1.1-1.1-1.1S87.4,153.4,87.4,154z"/>
										</g>
										<g>
											<path class="st35" d="M86.1,159.3c0,0-0.7,1.9-2.1,2s-2.5-1.4-2.6-2.6L86.1,159.3z"/>
											<g>
												<path class="st34" d="M85.6,159.2c-0.2,0.5-0.6,1.1-1.1,1.4c-1.2,0.7-2.4-0.7-2.5-1.8c-0.2,0.2-0.4,0.4-0.6,0.6
													c1.5,0.2,3.1,0.4,4.6,0.6c0.7,0.1,0.7-1,0-1.1c-1.5-0.2-3.1-0.4-4.6-0.6c-0.3,0-0.6,0.3-0.6,0.6
													c0.2,1.6,1.5,3.4,3.3,3.1c1.2-0.2,2.1-1.3,2.5-2.4C86.9,158.8,85.8,158.5,85.6,159.2z"/>
											</g>
										</g>
										<g>
											<ellipse class="st6" cx="77.5" cy="159" rx="3.3" ry="3.2"/>
											<path class="st6" d="M89.6,156.8c0.2,0,0.4,0,0.6,0.1v3.3c0,0.5,0,1-0.1,1.4c-0.1,0-0.3,0-0.5,0c-1.4,0-2.5-1.1-2.5-2.4
												C87.1,157.9,88.2,156.8,89.6,156.8z"/>
										</g>
										<polygon class="st5" points="84.7,152.9 84.4,157.3 86.5,156 										"/>
									</g>
									<path d="M72.1,155.7l1-5.4c0,0,5.7,1.8,10.1-1.6c4.4-3.4-2.8-4.8-1.6-2.2c1.2,2.5,5.1,3.6,10.1,3.1
										c7.4-0.8,7.5-9.5,3.3-12.1s-9,0.4-9,0.4s2.2-4.3-3.3-5.8c-4.5-1.2-7.9,2.6-8.4,4.2c0,0-7.5,0.7-10.8,5.3
										s-3.6,10.1-0.3,15.1c3.3,5,7.2,7.7,7.2,7.7S70.9,158,72.1,155.7z"/>
									<g>
										<path class="st0" d="M63.1,157.5c0,2.5,2.1,4.5,4.7,4.5s4.7-2,4.7-4.5s-2.1-4.5-4.7-4.5S63.1,155,63.1,157.5z"/>
										<g>
											<g>
												<path class="st36" d="M71,158.1c0-0.6-0.1-1.3-0.4-1.9c-0.6-1.2-2-1.6-3.3-1.5c-0.9,0.1-0.9,1.5,0,1.4s1.8,0.1,2.2,1
													c0.2,0.4,0.2,0.6,0.2,1.1C69.5,158.9,70.9,158.9,71,158.1L71,158.1z"/>
											</g>
										</g>
									</g>
								</g>
							</g>
						</g>
						<path class="st26" d="M125.6,188.7h-75c-4.3,0-7.9-3.5-7.9-7.9v-38.1c0-4.3,3.5-7.9,7.9-7.9h75c4.3,0,7.9,3.5,7.9,7.9v38.1
							C133.5,185.2,129.9,188.7,125.6,188.7z"/>
					</g>
					<path class="st1" d="M125.6,188.7h-75c-4.3,0-7.9-3.5-7.9-7.9v-38.1c0-4.3,3.5-7.9,7.9-7.9h75c4.3,0,7.9,3.5,7.9,7.9v38.1
						C133.5,185.2,129.9,188.7,125.6,188.7z"/>
				</g>
			</g>
			<g>
				<g>
					<g>
						<path class="st15" d="M308.5,322.4h-89.7c-4.4,0-7.9-3.6-7.9-7.9v-55.3c0-4.4,3.6-7.9,7.9-7.9h89.7c4.4,0,7.9,3.6,7.9,7.9
							v55.3C316.4,318.8,312.8,322.4,308.5,322.4z"/>
						<g>
							<g>
								<path d="M266,315.8c-0.2,2.8-4.5,2.8-4.5,0S265.9,313,266,315.8c0,0.8,1.3,0.8,1.3,0c-0.1-1.9-1.5-3.4-3.5-3.4
									c-1.9,0-3.5,1.5-3.5,3.4c0,1.8,1.5,3.4,3.3,3.4c2,0.1,3.6-1.5,3.7-3.4C267.3,315,266.1,315,266,315.8z"/>
							</g>
						</g>
					</g>
					<g>
						<path class="st0" d="M301.5,309.6h-75.7c-4.4,0-7.9-3.6-7.9-7.9v-38.4c0-4.4,3.6-7.9,7.9-7.9h75.7c4.4,0,7.9,3.6,7.9,7.9v38.4
							C309.4,306,305.9,309.6,301.5,309.6z"/>
						<g>
							<g>
								<g>
									<g>
										<g>
											<defs>
												<path id="SVGID_5_" d="M301.5,309.6h-75.7c-4.4,0-7.9-3.6-7.9-7.9v-38.4c0-4.4,3.6-7.9,7.9-7.9h75.7
													c4.4,0,7.9,3.6,7.9,7.9v38.4C309.4,306,305.9,309.6,301.5,309.6z"/>
											</defs>
											<clipPath id="SVGID_6_">
												<use xlink:href="#SVGID_5_"  style="overflow:visible;"/>
											</clipPath>
											<g class="st37">
												<path class="st38" d="M208.8,308.3c0,0,13.8-12.9,28.5-15.6s44.2-2.4,60.1,18.2c16,20.7-23.3,38.9-24.3,39.1
													c-1.1,0.1-64.7-10.3-67.2-12.1C203.5,336.1,194.3,325.4,208.8,308.3z"/>
												<g>
													<path class="st38" d="M268.8,297.7c0,0,23.8,46.9,18.5,55.9s-44.8,17.5-64.6,7.7c-23.1-11.4,7.3-59,14.4-69.9
														L268.8,297.7z"/>
													<path class="st0" d="M231.8,308.3c0,3,2.4,5.3,5.5,5.3s5.5-2.4,5.5-5.3c0-3-2.4-5.3-5.5-5.3S231.8,305.4,231.8,308.3z"
														/>
												</g>
											</g>
										</g>
									</g>
								</g>
								<path class="st26" d="M301.5,309.6h-75.7c-4.4,0-7.9-3.6-7.9-7.9v-38.4c0-4.4,3.6-7.9,7.9-7.9h75.7c4.4,0,7.9,3.6,7.9,7.9
									v38.4C309.4,306,305.9,309.6,301.5,309.6z"/>
								<g>
									
										<ellipse transform="matrix(9.703454e-02 -0.9953 0.9953 9.703454e-02 -63.2245 516.4734)" class="st39" cx="253" cy="293.1" rx="12.2" ry="19.2"/>
									<g>
										<g>
											<path class="st40" d="M242.8,274.5c0,2.7,2.3,4.9,5,4.9c2.8,0,5-2.2,5-4.9c0-2.7-2.3-4.9-5-4.9S242.8,271.8,242.8,274.5z
												"/>
											<path class="st41" d="M264.8,259.3h-6.3c-4.2,0-7.7,3.8-7.7,8.5v9.6c0,0.3,0,0.5,0,0.8c-0.1,0.3-0.1,0.6-0.1,0.9v5.9v0.3
												v5.8c0,2.1,1.8,3.9,3.9,3.9h2.5c2.2,0,3.9-1.7,3.9-3.9V286h3.7c4.2,0,7.7-3.8,7.7-8.5v-9.6
												C272.4,263.2,269,259.3,264.8,259.3z"/>
											<g>
												<g>
													<path class="st29" d="M259.8,271c0,0.8,0.6,1.4,1.4,1.4s1.4-0.6,1.4-1.4s-0.6-1.4-1.4-1.4S259.8,270.2,259.8,271z"/>
													<path class="st29" d="M269.1,270.8c0,0.7,0.5,1.2,1.2,1.2s1.2-0.5,1.2-1.2s-0.5-1.2-1.2-1.2S269.1,270.2,269.1,270.8z"
														/>
												</g>
												<g>
													<path class="st42" d="M267.8,276.5c0,0-0.7,2-2.2,2.2s-2.7-1.5-2.8-2.8L267.8,276.5z"/>
													<g>
														<path class="st29" d="M267.3,276.4c-0.2,0.6-0.6,1.3-1.2,1.6c-1.4,0.8-2.7-0.8-2.8-2.1c-0.2,0.2-0.3,0.3-0.5,0.5
															c1.7,0.2,3.3,0.4,5,0.6c0.7,0.1,0.7-1,0-1c-1.7-0.2-3.3-0.4-5-0.6c-0.3,0-0.6,0.3-0.5,0.5c0.2,1.7,1.6,3.6,3.5,3.3
															c1.3-0.2,2.2-1.4,2.6-2.6C268.5,276,267.5,275.8,267.3,276.4z"/>
													</g>
												</g>
												<g>
													<path class="st6" d="M254.8,276.2c0,1.9,1.6,3.5,3.5,3.5s3.5-1.6,3.5-3.5s-1.6-3.5-3.5-3.5S254.8,274.2,254.8,276.2z"
														/>
													<path class="st6" d="M271.5,273.8c0.2,0,0.4,0,0.6,0.1v3.6c0,0.5,0,1.1-0.1,1.6c-0.1,0-0.3,0-0.5,0
														c-1.5,0-2.7-1.2-2.7-2.6C268.8,275,270,273.8,271.5,273.8z"/>
												</g>
												<polygon class="st24" points="266.2,269.6 265.9,274.4 268.2,273 												"/>
											</g>
											<path d="M252.5,274.4l1.2-7.5c0,0,21.3,2.6,28.2-7.5s-0.4-14.1-3.9-13.5s-7.6,5.5-7.6,5.5s3.3-4.3,0-5s-6.9,2.6-8.7,6.1
												c0,0-14-1.3-18.8,7c-4.7,8.3-0.9,14.2,7.8,22.8l0.6-4.8L252.5,274.4z"/>
											<g>
												<path class="st0" d="M242.8,274.5c0,2.7,2.3,4.9,5,4.9c2.8,0,5-2.2,5-4.9c0-2.7-2.3-4.9-5-4.9S242.8,271.8,242.8,274.5z
													"/>
												<g>
													<g>
														<path class="st43" d="M251.2,275.2c0-0.7-0.1-1.4-0.5-2c-0.7-1.3-2.1-1.7-3.5-1.6c-0.8,0.1-0.8,1.4,0,1.3
															c1-0.1,2,0.1,2.4,1.1c0.2,0.4,0.2,0.8,0.2,1.2C249.9,276,251.2,276,251.2,275.2L251.2,275.2z"/>
													</g>
												</g>
											</g>
										</g>
										<g>
											<path class="st44" d="M261.6,252.3c0,0-14,14.2-19.8,18.5c0,0-7.6-16.4-3.3-20.9C241.9,246.2,258.7,248.4,261.6,252.3z"
												/>
											<line class="st45" x1="257" y1="249.7" x2="239.9" y2="266.1"/>
										</g>
									</g>
									<g>
										<path class="st10" d="M265.5,287.6l2.3,8.3l-17.3,5.4l-0.9-3.5l-6.4-3.7l2.6-7l7.6,5.8l0.5,0.4c0,0,0.3,0.5,1.7-0.3
											C257,292.2,265.5,287.6,265.5,287.6z"/>
										<g>
											<polyline class="st45" points="266.2,287.2 249.7,296.1 249.6,298.2 											"/>
											<line class="st45" x1="245.4" y1="287" x2="254.4" y2="293.5"/>
										</g>
									</g>
									<g>
										<g>
											<path class="st45" d="M245.4,296.7c0,0-11.7,7.6-19.6,4.5"/>
											<ellipse class="st45" cx="245.1" cy="296.6" rx="1.3" ry="1.3"/>
										</g>
										<g>
											<path class="st45" d="M260.1,299.5c0,0.7,0.6,1.3,1.3,1.3c0.7,0,1.3-0.6,1.3-1.3c0-0.7-0.6-1.3-1.3-1.3
												S260.1,298.8,260.1,299.5z"/>
											<path class="st45" d="M261.4,299.5c0,0,4.8,13.5,13.1,17.4"/>
										</g>
									</g>
								</g>
							</g>
						</g>
					</g>
				</g>
			</g>
			<g>
				<g>
					<path class="st15" d="M452.2,372H346.6c-5.2,0-9.3-4.2-9.3-9.3v-65.2c0-5.2,4.2-9.3,9.3-9.3h105.6c5.2,0,9.3,4.2,9.3,9.3v65.2
						C461.6,367.8,457.4,372,452.2,372z"/>
					<g>
						<g>
							<path d="M402.4,364.2c-0.2,3.5-5.5,3.5-5.5,0C396.8,360.7,402.2,360.8,402.4,364.2c0,0.8,1.3,0.8,1.3,0
								c-0.1-2.2-1.8-3.9-4-3.9c-2.1,0-4,1.8-4,3.9s1.7,3.8,3.8,3.9c2.3,0.1,4.1-1.7,4.2-3.9C403.7,363.4,402.4,363.4,402.4,364.2z"
								/>
						</g>
					</g>
				</g>
				<g>
					<path class="st0" d="M444,356.9h-89.2c-5.2,0-9.3-4.2-9.3-9.3v-45.2c0-5.2,4.2-9.3,9.3-9.3H444c5.2,0,9.3,4.2,9.3,9.3v45.2
						C453.4,352.7,449.2,356.9,444,356.9z"/>
					<g>
						<g>
							<g>
								<path d="M397.1,329.5c0,0,16.2,7.6,22.3-3.5c6.1-11.1-3.6-24.8-11.5-26.8C400.1,297.2,393.9,319.1,397.1,329.5z"/>
								<path d="M390.1,330.4c0,0-7.1,5.2-17.9,1.2s-4.2-23.4,0-29.3c4.2-6,13.5-9.6,17.7-7.7C394.1,296.5,397.5,318.3,390.1,330.4z
									"/>
								<ellipse cx="368.8" cy="292.7" rx="7.8" ry="7.6"/>
							</g>
							<g>
								<path class="st17" d="M414.3,314.4c0,0-2.6-5.8-4.8-5.5c-2.2,0.4-1.6,4.1-1.3,6.2c0.3,2.1,1.3,4.7-1,7.1
									C404.9,324.6,416.3,321,414.3,314.4z"/>
								<g>
									<path class="st17" d="M402.4,298.1h-6.6c-4.4,0-8,4-8,8.9v10.1c0,0.3,0,0.6,0,0.8c-0.1,0.3-0.1,0.6-0.1,0.9v6.1v0.3v6.1
										c0,2.2,1.9,4,4.1,4h2.6c2.3,0,4.1-1.8,4.1-4v-5.4h3.8c4.4,0,8-4,8-8.9v-10.1C410.4,302.2,406.8,298.1,402.4,298.1z"/>
									<g>
										<path class="st6" d="M391.9,315.8c0,2,1.7,3.6,3.7,3.6c2.1,0,3.7-1.6,3.7-3.6s-1.7-3.6-3.7-3.6
											C393.6,312.1,391.9,313.8,391.9,315.8z"/>
										<path class="st6" d="M409.4,313.3c0.2,0,0.4,0,0.7,0.1v3.8c0,0.6,0,1.1-0.1,1.6c-0.2,0-0.4,0-0.5,0
											c-1.6,0-2.8-1.2-2.8-2.8C406.6,314.5,407.9,313.3,409.4,313.3z"/>
									</g>
									<g>
										<g>
											<path class="st29" d="M397.1,310.4c0,0.8,0.7,1.5,1.5,1.5s1.5-0.7,1.5-1.5s-0.7-1.5-1.5-1.5S397.1,309.6,397.1,310.4z"/>
											<path class="st29" d="M406.9,310.2c0,0.7,0.6,1.3,1.3,1.3c0.7,0,1.3-0.6,1.3-1.3c0-0.7-0.6-1.3-1.3-1.3
												C407.5,308.9,406.9,309.5,406.9,310.2z"/>
										</g>
										<g>
											<path class="st42" d="M405.7,316.9c0,0-0.8,2.1-2.3,2.3c-1.6,0.1-2.8-1.6-2.9-2.9L405.7,316.9z"/>
											<g>
												<path class="st29" d="M405.2,316.8c-0.2,0.6-0.7,1.3-1.2,1.7c-1.4,0.9-2.8-0.9-2.9-2.1c-0.2,0.2-0.4,0.4-0.6,0.6
													c1.8,0.2,3.5,0.4,5.3,0.6c0.7,0.1,0.7-1,0-1.1c-1.8-0.2-3.5-0.4-5.3-0.6c-0.3,0-0.6,0.3-0.6,0.6
													c0.2,1.8,1.6,3.7,3.6,3.5c1.4-0.2,2.3-1.5,2.7-2.7C406.5,316.4,405.4,316.1,405.2,316.8z"/>
											</g>
										</g>
										<polygon class="st24" points="403.8,308.9 403.5,313.9 405.9,312.5 										"/>
									</g>
									<path d="M385.8,296.8L385.8,296.8c0.3-3.8,2.5-7.2,5.3-7.3c6.2-0.1,6.1,4.4,6.1,4.4c10.6-12.8,24.2-5.2,19.8,4.2
										c-4.4,9.4-21.4,7.9-21.4,7.9c-0.9,0-1.7-0.3-2.4-0.1c-2,0.4-3.4,2.8-4,5.9C387.7,319.5,381.8,302.8,385.8,296.8z"/>
									<g>
										<path d="M384.7,308.3c1,0,1.9,0.2,2.7,0.7v1.6c-0.8-0.6-1.7-0.9-2.7-0.9c-2.5,0-4.6,2-4.6,4.5s2.1,4.5,4.6,4.5
											c1,0,2-0.3,2.7-0.9v1.6c-0.8,0.4-1.8,0.7-2.7,0.7c-3.3,0-6-2.6-6-5.8C378.7,310.9,381.4,308.3,384.7,308.3z"/>
										<g>
											<path class="st0" d="M379.4,314.1c0,2.8,2.4,5.1,5.3,5.1s5.3-2.3,5.3-5.1c0-2.8-2.4-5.1-5.3-5.1
												C381.7,308.9,379.4,311.2,379.4,314.1z"/>
											<g>
												<g>
													<path class="st43" d="M388.2,314.8c0-0.7-0.1-1.5-0.5-2.1c-0.7-1.3-2.2-1.8-3.6-1.7c-0.9,0.1-0.9,1.5,0,1.4
														c1-0.1,2.1,0.1,2.5,1.2c0.2,0.5,0.2,0.8,0.2,1.3C386.8,315.6,388.1,315.6,388.2,314.8L388.2,314.8z"/>
												</g>
											</g>
										</g>
									</g>
								</g>
							</g>
						</g>
						<g>
							<g>
								<g>
									<defs>
										<path id="SVGID_7_" d="M444,356.9h-89.2c-5.2,0-9.3-4.2-9.3-9.3v-45.2c0-5.2,4.2-9.3,9.3-9.3H444c5.2,0,9.3,4.2,9.3,9.3
											v45.2C453.4,352.7,449.2,356.9,444,356.9z"/>
									</defs>
									<clipPath id="SVGID_8_">
										<use xlink:href="#SVGID_7_"  style="overflow:visible;"/>
									</clipPath>
									<g class="st46">
										<g>
											<path class="st47" d="M349.5,383.4c4.1-31.2,31.8-54.1,50.5-47.5c14.9,5.3,21.4,34.5,23.6,47.5H349.5z"/>
											<path class="st48" d="M388,338.4h9.4c2.5,0,4.5-2,4.5-4.5l0,0c0-2.5-2-4.5-4.5-4.5H388c-2.5,0-4.5,2-4.5,4.5l0,0
												C383.6,336.4,385.5,338.4,388,338.4z"/>
											<g>
												<line class="st49" x1="400.1" y1="329.9" x2="400.1" y2="337.9"/>
												<line class="st49" x1="398" y1="329.5" x2="398" y2="338.4"/>
												<line class="st49" x1="395.8" y1="329.5" x2="395.8" y2="338.4"/>
												<line class="st49" x1="393.7" y1="329.5" x2="393.7" y2="338.4"/>
												<line class="st49" x1="391.5" y1="329.5" x2="391.5" y2="338.4"/>
												<line class="st49" x1="389.3" y1="329.5" x2="389.3" y2="338.4"/>
												<line class="st49" x1="387.2" y1="329.5" x2="387.2" y2="338.4"/>
												<line class="st49" x1="385" y1="330.2" x2="385" y2="337.7"/>
											</g>
										</g>
										<g>
											<g>
												<path class="st50" d="M363,310.9c1-0.6,2,3.3,2.5,5.9c-0.2-2.2-0.4-5.7,0.5-5.9c0.9-0.3,1.8,3.5,2.2,5.9
													c-0.2-2.2-0.4-5.8,0.4-5.9c1-0.1,1.8,3.3,2.2,5.9c-0.3-2.3-0.4-5,0.4-5.2c1.4-0.3,1.8,1.3,2.5,5.1
													c0.7,3.8,1.8,6.3,7,8.5c4.6,1.9,10,4.6,15,21l-14.7,0.7c0-0.4,0-0.8-0.1-1.2c-1-15.3-9.8-14.8-14-17.9
													S361.1,312.1,363,310.9z"/>
												<path class="st47" d="M370.5,383.4c6.6-8.3,11-23.5,10.3-37l14.6-0.9c0.8,2.5,1.6,5.3,2.3,8.5
													c3.3,13.6,1.1,23.5-1.2,29.4H370.5z"/>
												<g>
													<path class="st48" d="M396.6,349.7h-15.7c0-1.4,0-2.8-0.1-4.2c-0.1-1-0.2-2-0.3-2.9l13.7-0.6
														C395,344.3,395.8,346.8,396.6,349.7z"/>
													<g>
														<line class="st49" x1="392" y1="342.2" x2="393.8" y2="349.7"/>
														<line class="st49" x1="389.2" y1="342.3" x2="390.1" y2="349.7"/>
														<line class="st49" x1="386.2" y1="342.3" x2="386.7" y2="349.7"/>
														<line class="st49" x1="383.6" y1="342.6" x2="383.8" y2="349.5"/>
													</g>
												</g>
											</g>
											<g>
												<path class="st17" d="M412.4,316.9c0.6-3.4-2.8-7.1-1.7-7.9c1.1-0.9,7.4,4.7,5.6,10.3c-1.8,5.6-8.2,6.6-5.9,15
													c0.8,3,2.5,7,4.7,11.4l-14.7,0.4c-1-10.1,0.1-17.4,1.2-19.9C403.1,323.3,411.8,320.3,412.4,316.9z"/>
												<path class="st47" d="M410.5,383.4c-2.8-7.8-7.9-22.7-9.3-31.9c-0.3-2.2-0.6-4.2-0.8-6.2l14-1.3
													c4,8.3,9.8,18.2,13.8,24.2c3.1,4.6,4.7,10.3,4.8,15.1L410.5,383.4L410.5,383.4z"/>
												<g>
													<path class="st27" d="M400.9,349.5c-0.3-2.6-0.6-5.1-0.7-7.3h13.3c1,2.2,2.2,4.6,3.4,7L400.9,349.5z"/>
													<g>
														<line class="st25" x1="411.6" y1="342.3" x2="413.6" y2="349.5"/>
														<line class="st25" x1="408.8" y1="342.3" x2="409.7" y2="349.3"/>
														<line class="st25" x1="406.2" y1="342.2" x2="406.6" y2="349.3"/>
														<line class="st25" x1="403.1" y1="342.2" x2="403.7" y2="349.4"/>
													</g>
												</g>
											</g>
										</g>
									</g>
								</g>
							</g>
						</g>
					</g>
				</g>
			</g>
		</g>
		<g>
			<g>
				<g>
					<path class="st0" d="M522.5,237.6H342.1c-7.5,0-13.6-6.1-13.6-13.6V99.7c0-7.5,6.1-13.6,13.6-13.6h180.4
						c7.5,0,13.6,6.1,13.6,13.6V224C536.1,231.5,530,237.6,522.5,237.6z"/>
					<path class="st0" d="M434.8,256.6h-18.1c-3.2,0-5.4-3.2-4.1-6.2l9.7-22l8.3-18.9c1.6-3.5,6.7-3.5,8.3,0l8.3,18.9l9.7,22
						c1.3,2.9-0.9,6.2-4.1,6.2H434.8z"/>
				</g>
				<path class="st25" d="M440.3,220.6c0,2.9-2.4,5.2-5.3,5.2s-5.3-2.3-5.3-5.2s2.4-5.2,5.3-5.2S440.3,217.7,440.3,220.6z"/>
			</g>
			<g>
				<path class="st17" d="M520.9,209.1H347.2c-3.4,0-6.2-2.8-6.2-6.2V104c0-3.4,2.8-6.2,6.2-6.2h173.7c3.4,0,6.2,2.8,6.2,6.2v98.9
					C527.1,206.3,524.3,209.1,520.9,209.1z"/>
				<g>
					<g>
						<path class="st17" d="M366.5,195.8h100.3c7.4,0,13.4-6,13.4-13.4v-67.1c0-7.4-6-13.4-13.4-13.4H366.5c-7.4,0-13.4,6-13.4,13.4
							v67.1C353,189.8,359.1,195.8,366.5,195.8z"/>
						<g>
							<g>
								<path class="st27" d="M365.4,110.4c0,1.2-1,2.1-2.1,2.1c-1.2,0-2.2-1-2.2-2.1c0-1.2,1-2.1,2.2-2.1S365.4,109.2,365.4,110.4z
									"/>
								<path class="st20" d="M374,110.4c0,1.2-1,2.1-2.1,2.1c-1.2,0-2.2-1-2.2-2.1c0-1.2,1-2.1,2.2-2.1
									C373,108.3,374,109.2,374,110.4z"/>
								<path class="st51" d="M382.6,110.4c0,1.2-1,2.1-2.1,2.1c-1.2,0-2.2-1-2.2-2.1c0-1.2,1-2.1,2.2-2.1
									C381.6,108.3,382.6,109.2,382.6,110.4z"/>
							</g>
							<line class="st25" x1="353.3" y1="117.9" x2="480.2" y2="117.9"/>
						</g>
					</g>
					<g>
						<g>
							<rect x="449.3" y="157.3" class="st8" width="23.7" height="14.5"/>
							<g>
								<line class="st8" x1="452.2" y1="161.1" x2="469.4" y2="161.1"/>
								<line class="st8" x1="452.2" y1="163.7" x2="469.4" y2="163.7"/>
								<line class="st8" x1="452.2" y1="166.3" x2="469.4" y2="166.3"/>
							</g>
						</g>
						<g>
							<path class="st24" d="M421.2,142.4v-17c-9.6,0-17.3,7.6-17.3,17s7.8,17,17.3,17c9.6,0,17.3-7.6,17.3-17
								c0-1.2-0.1-2.4-0.4-3.6L421.2,142.4z"/>
							<path class="st6" d="M440.3,135.8c-1.7-7.7-8.6-13.4-16.9-13.4v17L440.3,135.8z"/>
						</g>
						<g>
							<g>
								<g>
									<path class="st8" d="M388.7,126.4h-20.8c-0.8,0-1.5-0.6-1.5-1.4l0,0c0-0.8,0.7-1.4,1.5-1.4h20.8c0.8,0,1.5,0.6,1.5,1.4l0,0
										C390.1,125.8,389.5,126.4,388.7,126.4z"/>
									<g>
										<line class="st8" x1="367.9" y1="128.6" x2="388" y2="128.6"/>
										<line class="st8" x1="367.9" y1="131.2" x2="388" y2="131.2"/>
										<line class="st8" x1="367.9" y1="133.8" x2="388" y2="133.8"/>
									</g>
								</g>
								<polyline class="st8" points="391.6,125.5 399.2,125.5 410.1,135.3 								"/>
							</g>
							<g>
								<g>
									<path class="st8" d="M471.5,128.1h-20.8c-0.8,0-1.5-0.6-1.5-1.4l0,0c0-0.8,0.7-1.4,1.5-1.4h20.8c0.8,0,1.5,0.6,1.5,1.4l0,0
										C473,127.5,472.3,128.1,471.5,128.1z"/>
									<g>
										<g>
											<line class="st8" x1="450.8" y1="130.2" x2="470.9" y2="130.2"/>
											<line class="st8" x1="450.8" y1="132.8" x2="470.9" y2="132.8"/>
											<line class="st8" x1="450.8" y1="135.5" x2="470.9" y2="135.5"/>
										</g>
										<g>
											<line class="st8" x1="450.8" y1="138.2" x2="470.9" y2="138.2"/>
											<line class="st8" x1="450.8" y1="140.8" x2="470.9" y2="140.8"/>
											<line class="st8" x1="450.8" y1="143.5" x2="470.9" y2="143.5"/>
										</g>
									</g>
								</g>
								<polyline class="st8" points="433.9,133.3 441.2,127.4 447.7,127.4 								"/>
							</g>
						</g>
						<g>
							<g>
								<polyline class="st8" points="369.4,149.1 369.4,182.5 421,182.5 								"/>
								<g>
									<polygon class="st52" points="369.4,149.3 367.6,149.3 368.5,147.8 369.4,146.2 370.4,147.8 371.3,149.3 									"/>
									<polygon class="st52" points="420.4,182.5 420.4,180.7 422,181.6 423.6,182.5 422,183.4 420.4,184.3 									"/>
								</g>
							</g>
							<polyline class="st11" points="365.2,179.7 377.7,168.7 388,179.5 401,156.2 410.5,179 							"/>
							<g>
								<g>
									<path class="st53" d="M360.9,163.3c0,0,0.6-0.6,1.5-1.4"/>
									<path class="st54" d="M365.5,159.5c3.3-2.2,7.5-4.1,10.3-1.5c5.1,4.8,3.9,8.5,14,6.3c9.4-2,21,0.7,24.6,16"/>
									<path class="st53" d="M414.8,182.3c0.1,0.6,0.2,1.3,0.3,2"/>
								</g>
							</g>
						</g>
					</g>
				</g>
				<g>
					<g>
						<g>
							<g>
								<g>
									<defs>
										<path id="SVGID_9_" d="M521.8,209.1H403.9c-2.9,0,3.3-19.6,3.3-22.4l22.4-61.7c0-2.9,40.4,1.7,43.3,1.7l48.8-28.9
											c2.9,0,5.3,2.3,5.3,5.2v101C527.1,206.8,524.7,209.1,521.8,209.1z"/>
									</defs>
									<clipPath id="SVGID_10_">
										<use xlink:href="#SVGID_9_"  style="overflow:visible;"/>
									</clipPath>
									<g class="st55">
										<g>
											<path class="st51" d="M521.2,144.5c0,0,31.3,12,47.9,63.8l-21.2,10.3l-15.7-39.2L521.2,144.5z"/>
											<g>
												<g>
													<path class="st0" d="M427.9,154.7c0,0-5.3-3.4-4.7-5c0.7-1.6,2.2-0.7,2.2-0.7s-1.6-1-0.9-2c0.7-1.1,1.7-0.7,1.7-0.7
														s-1.1-1.6,0-2.2c1.1-0.6,2.7-0.2,2.7-0.2s-0.6-1.3-0.6-1.8s0.7-1.5,3-1s7.1,3.2,8.8,4c1.6,0.8,3.5,2.7,3.5,2.1
														c0.1-0.6,0.8-4.5,2.3-5.7c1.5-1.1,2.2-1.3,2.4,0.8c0.3,2.2,0.2,8.2,3.2,12.7s4,7.4,7.2,11s4.6,5.4,4.6,5.4L449,182.8
														c0,0-13.9-20.4-14-20.6C435.1,162.2,430.6,156.8,427.9,154.7z"/>
													<g>
														<path class="st25" d="M425,149c0,0-1.8-2.8,1.5-2.5s7.8,3.4,10,5"/>
														<path class="st25" d="M440.1,157.8c0,0-1.2-3.6,4.1-5.1c0,0-2-7.7,1.8-11.1c3.8-3.4,1.7,5.4,4.3,10.8
															c2.6,5.4,5.5,10.6,8.2,13.4c2.7,2.8,5.1,5.9,5.1,5.9L449.1,183c0,0-4.9-7.4-12.6-18.8c-7.6-11.4-14.3-11.7-13.3-14.5
															c1.3-3.4,10.2,4.7,10.2,4.7"/>
														<path class="st25" d="M426.5,146.5c0,0-1.7-2.1,0.5-2.6c0.4-0.1,0.8-0.1,1.3,0c2.6,0.3,7,2.5,10.1,4.9"/>
														<path class="st25" d="M443.7,147.8c0,0-6.2-5.7-13.3-6.6c-2.6-0.3-2.5,2.2,0.1,3.2"/>
													</g>
												</g>
												<g>
													<path class="st15" d="M473.9,178.7c-2-1.3-4.1-3.1-6-4.9c-6.4-6.1-11.9-13.7-11.9-13.7l-15.7,13.2
														c0,0,17.1,26.1,27.4,29.3c10.3,3.3,33.8-23,33.8-23l1.9-34.5c0,0-4.4,2.3-8,5.5c-5.8,5.2-16,14.4-27.6,23.1"/>
													<g>
														<path class="st17" d="M461.1,166.6c-3.1-3.6-5.1-6.5-5.1-6.5l-15.7,13.2c0,0,2,3,5,7.1L461.1,166.6z"/>
														<path class="st17" d="M457.3,165.1c0,0.6-0.5,1-1.1,1s-1.1-0.5-1.1-1s0.5-1,1.1-1C456.8,164,457.3,164.5,457.3,165.1z
															"/>
													</g>
												</g>
											</g>
										</g>
										<g>
											<path class="st15" d="M546.1,210.6c0-0.3,0-6.2,0-6.4c0-34-14.8-61.5-32.9-61.5s-32.9,27.5-32.9,61.5c0,0.3,0,6.2,0,6.4
												H546.1z"/>
											<line class="st25" x1="513" y1="158.1" x2="513" y2="210.6"/>
											<path class="st17" d="M513.1,158.6l12.7-11.2c-3.9-3.1-8.2-4.7-12.7-4.7c-4.4,0-8.9,1.9-12.7,4.7L513.1,158.6z"/>
											<path class="st25" d="M484.9,172.4c-3,9.3-4.7,20.1-4.7,31.8c0,0.3,0,6.2,0,6.4h65.9c0-0.3,0-6.2,0-6.4
												c0-11.9-1.8-23-4.9-32.4"/>
											<path class="st25" d="M525.9,147.4c-3.9-3.1-8.2-4.7-12.7-4.7s-8.8,1.7-12.7,4.7"/>
										</g>
									</g>
								</g>
							</g>
						</g>
					</g>
				</g>
				<path class="st25" d="M520.9,209.1H347.2c-3.4,0-6.2-2.8-6.2-6.2V104c0-3.4,2.8-6.2,6.2-6.2h173.7c3.4,0,6.2,2.8,6.2,6.2v98.9
					C527.1,206.3,524.3,209.1,520.9,209.1z"/>
				<g>
					<g>
						<path class="st56" d="M526.2,150.7l-7-10.3c-1.4-2-4-2.8-6.2-2c-2.2-0.8-4.8-0.1-6.2,2l-7,10.3c-1.6,2.4-0.9,5.5,1.5,7.1
							l1,0.7c2.4,1.6,5.7,0.9,7.3-1.4l3.5-5.1l3.5,5.1c1.6,2.4,4.8,3,7.3,1.4l1-0.7C527.2,156.2,527.8,153.1,526.2,150.7z"/>
						<path class="st56" d="M514.2,149.5c0,0.5-0.5,1-1,1s-1-0.4-1-1c0-0.5,0.5-1,1-1S514.2,148.9,514.2,149.5z"/>
					</g>
					<g>
						<path class="st32" d="M527,125.1c0,2.9-2.4,5.3-5.5,5.3c-3,0-5.5-2.4-5.5-5.3s2.4-5.3,5.5-5.3
							C524.5,119.8,527,122.2,527,125.1z"/>
						<g>
							<path class="st17" d="M503.2,108.7h6.9c4.6,0,8.3,4.2,8.3,9.3v10.4c0,0.3,0,0.6,0,0.9c0.1,0.3,0.1,0.6,0.1,1v6.3v0.4v6.3
								c0,2.3-1.9,4.2-4.3,4.2h-2.7c-2.4,0-4.3-1.9-4.3-4.2v-5.6h-4c-4.6,0-8.3-4.2-8.3-9.3V118
								C494.9,112.8,498.6,108.7,503.2,108.7z"/>
							<g>
								<path d="M516.5,125l-1.3-8.2c0,0-23.1,2.8-30.5-8.1c-7.5-11,0.4-15.3,4.2-14.7c3.8,0.6,8.2,6,8.2,6s-3.5-4.7,0-5.5
									c3.5-0.7,7.4,2.9,9.5,6.6c0,0,15.2-1.4,20.3,7.6s1,15.4-8.4,24.7l-0.6-5.2L516.5,125z"/>
								<path d="M543,98.8c0,5.3-4.4,9.6-9.8,9.6c-5.4,0-9.8-4.3-9.8-9.6c0-5.3,4.4-9.6,9.8-9.6C538.6,89.2,543,93.5,543,98.8z"/>
							</g>
							<g>
								<g>
									<path class="st6" d="M514.5,126.6c0,2.1-1.8,3.9-3.9,3.9c-2.2,0-3.9-1.7-3.9-3.9c0-2.1,1.8-3.9,3.9-3.9
										S514.5,124.4,514.5,126.6z"/>
									<path class="st6" d="M495.9,123.5c-0.2,0-0.5,0-0.7,0.1v4c0,0.6-0.1,1.2,0.1,1.7c0.2,0,0.5,0,0.6,0c1.7,0,3-1.3,3-2.9
										S497.6,123.5,495.9,123.5z"/>
								</g>
								<g>
									<g>
										<path class="st34" d="M507.3,121.2c0,0.8-0.6,1.4-1.4,1.4s-1.4-0.6-1.4-1.4s0.6-1.4,1.4-1.4
											C506.7,119.8,507.3,120.4,507.3,121.2z"/>
										<path class="st34" d="M498.2,121c0,0.6-0.5,1.2-1.2,1.2s-1.2-0.5-1.2-1.2c0-0.6,0.5-1.2,1.2-1.2
											C497.6,119.8,498.2,120.3,498.2,121z"/>
									</g>
									<g>
										<path class="st35" d="M499.5,126.6c0,0,0.7,2,2.2,2.1c1.5,0.1,2.7-1.5,2.7-2.7L499.5,126.6z"/>
										<g>
											<path class="st34" d="M499,126.7c0.4,1.1,1.3,2.4,2.6,2.5c1.9,0.3,3.3-1.6,3.4-3.3c0-0.3-0.3-0.6-0.6-0.6
												c-1.6,0.2-3.3,0.4-4.9,0.6c-0.7,0.1-0.7,1.2,0,1.1c1.6-0.2,3.3-0.4,4.9-0.6c-0.2-0.2-0.4-0.4-0.6-0.6
												c-0.1,1.2-1.4,2.8-2.7,2c-0.5-0.3-0.9-1-1.1-1.5C499.8,125.8,498.7,126.1,499,126.7z"/>
										</g>
									</g>
									<g>
										<path class="st9" d="M513,120.4c0,3-2.2,5.4-4.9,5.4c-2.7,0-4.9-2.4-4.9-5.4s2.2-5.4,4.9-5.4
											C510.9,115,513,117.4,513,120.4z"/>
										<ellipse class="st9" cx="496" cy="119.7" rx="4" ry="4.8"/>
										<polygon class="st5" points="501.6,119.8 501.6,124.5 499.1,123 										"/>
										<path class="st9" d="M499.9,121.1c0,0,2-0.8,3.4,0.3"/>
									</g>
								</g>
							</g>
							<g>
								<path class="st0" d="M527,125.1c0,2.9-2.4,5.3-5.5,5.3c-3,0-5.5-2.4-5.5-5.3s2.4-5.3,5.5-5.3
									C524.5,119.8,527,122.2,527,125.1z"/>
								<g>
									<g>
										<path class="st36" d="M519.2,125.8c0-0.5,0-0.8,0.2-1.3c0.5-1.1,1.6-1.3,2.6-1.2c0.9,0.1,0.9-1.3,0-1.4
											c-1.5-0.1-3,0.3-3.7,1.7c-0.3,0.7-0.5,1.5-0.5,2.2C517.9,126.7,519.3,126.7,519.2,125.8L519.2,125.8z"/>
									</g>
								</g>
							</g>
						</g>
					</g>
				</g>
			</g>
		</g>
	</g>
	<g>
		<g>
			<path class="st17" d="M426.1,73.5h33.8c4.3,0,7.8,3.4,7.8,7.7v13.5v4.7v14.8l-8-7.2H426c-4.3,0-7.8-3.4-7.8-7.7V81.2
				C418.2,77,421.8,73.5,426.1,73.5z"/>
			<text transform="matrix(1.0212 0 0 1 434.2129 99.2637)" class="st57 st58 st59">?</text>
		</g>
		<g>
			<g>
				<path class="st17" d="M339,193.8h-39c-5,0-9,4-9,8.8v15.6v5.5v17.1l9.2-8.3H339c5,0,9-4,9-8.8v-21.1
					C348,197.8,344,193.8,339,193.8z"/>
				<g>
					<path class="st17" d="M310.6,213.9c0,2.1-1.8,3.8-3.9,3.8s-3.9-1.7-3.9-3.8s1.8-3.8,3.9-3.8S310.6,211.8,310.6,213.9z"/>
					<path class="st17" d="M324.2,213.9c0,2.1-1.8,3.8-3.9,3.8c-2.2,0-3.9-1.7-3.9-3.8s1.8-3.8,3.9-3.8
						C322.5,210,324.2,211.8,324.2,213.9z"/>
					<path class="st17" d="M337.9,213.9c0,2.1-1.8,3.8-3.9,3.8s-3.9-1.7-3.9-3.8s1.8-3.8,3.9-3.8S337.9,211.8,337.9,213.9z"/>
				</g>
			</g>
			<g>
				<path class="st17" d="M350.2,181.2h-39c-5,0-9,4-9,8.8v15.6v5.5v17.1l9.2-8.3h38.9c5,0,9-4,9-8.8V190
					C359.3,185.2,355.2,181.2,350.2,181.2z"/>
				<g>
					<path class="st17" d="M321.8,201.3c0,2.1-1.8,3.8-3.9,3.8s-3.9-1.7-3.9-3.8s1.8-3.8,3.9-3.8S321.8,199.2,321.8,201.3z"/>
					<path class="st17" d="M335.5,201.3c0,2.1-1.8,3.8-3.9,3.8s-3.9-1.7-3.9-3.8s1.8-3.8,3.9-3.8S335.5,199.2,335.5,201.3z"/>
					<path class="st17" d="M349.1,201.3c0,2.1-1.8,3.8-3.9,3.8c-2.2,0-3.9-1.7-3.9-3.8s1.8-3.8,3.9-3.8
						C347.4,197.5,349.1,199.2,349.1,201.3z"/>
				</g>
			</g>
		</g>
		<g>
			<path class="st17" d="M164.6,108.1h-36c-4.6,0-8.3,3.7-8.3,8.2v14.4v5v15.8l8.5-7.6h35.9c4.6,0,8.3-3.7,8.3-8.2v-19.4
				C173,111.8,169.2,108.1,164.6,108.1z"/>
			<g>
				<path class="st17" d="M138.4,126.6c0,2-1.6,3.5-3.6,3.5s-3.6-1.6-3.6-3.5s1.6-3.5,3.6-3.5C136.8,123.1,138.4,124.7,138.4,126.6z
					"/>
				<path class="st17" d="M151,126.6c0,2-1.6,3.5-3.6,3.5s-3.6-1.6-3.6-3.5s1.6-3.5,3.6-3.5C149.4,123.1,151,124.7,151,126.6z"/>
				<path class="st17" d="M163.6,126.6c0,2-1.6,3.5-3.6,3.5s-3.6-1.6-3.6-3.5s1.6-3.5,3.6-3.5C162,123.1,163.6,124.7,163.6,126.6z"
					/>
			</g>
		</g>
		<g>
			<path class="st17" d="M488.4,271.3h-36c-4.6,0-8.3,3.7-8.3,8.2v14.4v5v15.8l8.5-7.6h35.9c4.6,0,8.3-3.7,8.3-8.2v-19.4
				C496.8,275,493,271.3,488.4,271.3z"/>
			<g>
				<path class="st17" d="M462.2,289.8c0,2-1.6,3.5-3.6,3.5s-3.6-1.6-3.6-3.5s1.6-3.5,3.6-3.5S462.2,287.9,462.2,289.8z"/>
				<ellipse class="st17" cx="471.2" cy="289.8" rx="3.6" ry="3.5"/>
				<path class="st17" d="M487.4,289.8c0,2-1.6,3.5-3.6,3.5s-3.6-1.6-3.6-3.5s1.6-3.5,3.6-3.5S487.4,287.9,487.4,289.8z"/>
			</g>
		</g>
		<g>
			<g>
				<path class="st20" d="M56.9,242.6c-0.8-4.5-3.4-7.4-6.3-9.2c-4.9-3.1-11.4-3.1-16.3,0c-2.9,1.8-5.5,4.8-6.3,9.2
					c-1.5,8.3,5.9,12.7,7.3,14.4c0,0,0.9,0.8,1.4,1.7c0.1,0.2,0.2,0.9,0.4,1.9h5.3h5.3c0.1-1,0.3-1.7,0.4-1.9
					c0.5-0.9,1.4-1.7,1.4-1.7C51,255.3,58.4,250.8,56.9,242.6z"/>
				<g>
					<path class="st0" d="M40.3,261.4c0,0,0-7.8-0.6-9c-0.6-1.1-3.3-5-3.7-5.9c-0.5-0.8,0.5-1.8,1.2-0.6c0.6,1,3.2,4.6,3.8,6.1
						s1.1,9.7,1.1,9.7L40.3,261.4z"/>
					<path class="st0" d="M44.7,261.4c0,0,0-7.8,0.6-9c0.6-1.1,3.3-5,3.7-5.9c0.5-0.8-0.5-1.8-1.2-0.6c-0.6,1-3.2,4.6-3.8,6.1
						s-1.1,9.7-1.1,9.7L44.7,261.4z"/>
					<g>
						<path class="st0" d="M48.6,246.3c-1.1,0.5-2.9,0.6-4.3,0.2l0,0c-1.1,0.8-2.7,0.5-3.8-0.3c-1.4,0.5-3.4,0.6-3.7,0.6v-0.7
							c0.9,0,2.1-0.2,3.1-0.4c-0.8-0.8-1-1.8-0.4-2.4c0.7-0.8,1.5-0.7,2-0.3c0.6,0.5,0.9,1.5,0.4,2.4c-0.1,0.2-0.3,0.4-0.5,0.5
							c0.7,0.4,1.6,0.6,2.3,0.3c-0.2-0.1-0.4-0.3-0.6-0.5c-0.2-0.3-0.5-0.9,0.1-1.7c0.4-0.5,0.9-0.8,1.4-0.7s0.9,0.5,1,1.1
							c0.1,0.5-0.1,1-0.4,1.5c1.1,0.2,2.5,0.2,3.4-0.2V246.3z M43.8,244.1c-0.1,0.1-0.2,0.2-0.3,0.3c-0.3,0.4-0.2,0.6-0.1,0.8
							c0.1,0.2,0.4,0.3,0.7,0.5c0.4-0.4,0.5-0.8,0.4-1.1s-0.2-0.5-0.4-0.5C44,244,43.9,244,43.8,244.1z M40.5,245.3
							c0.3-0.1,0.5-0.3,0.6-0.4c0.3-0.5,0.2-1.1-0.2-1.4c-0.3-0.2-0.7-0.2-1,0.2s0,1,0.4,1.4C40.4,245.2,40.5,245.3,40.5,245.3z"/>
					</g>
				</g>
				<g>
					<path class="st17" d="M42.5,259.7c-2.9,0-5.4-0.7-5.8-1c0,0.1,0.1,0.1,0.1,0.2c0.4,0.8,0.9,7.3,1.9,9.8
						c0.2,0.4,0.4,0.8,0.6,0.9c0.6,0.4,1.8,0.8,3.2,0.7c1.3,0.1,2.6-0.3,3.2-0.7c0.2-0.1,0.4-0.5,0.6-0.9c1-2.5,1.5-9,1.9-9.8
						c0-0.1,0.1-0.1,0.1-0.2C47.8,258.9,45.4,259.7,42.5,259.7z"/>
					<path d="M42.5,262.6c1.7,0,3.5-0.2,5.2-0.7c0.1-0.8,0.2-1.5,0.3-2c-3.5,1.3-7.4,1.3-10.9,0c0.1,0.5,0.2,1.2,0.3,2
						C39,262.4,40.8,262.6,42.5,262.6z"/>
					<path d="M42.5,265.9c1.5,0,3.1-0.2,4.6-0.6c0.1-0.6,0.2-1.3,0.3-2c-3.2,1.1-6.7,1.1-9.9,0c0.1,0.7,0.2,1.3,0.3,2
						C39.4,265.7,41,265.9,42.5,265.9z"/>
					<path d="M38.2,266.9c0.2,0.7,0.3,1.3,0.5,1.8c0,0.1,0.1,0.1,0.1,0.2c1.2,0.2,2.5,0.3,3.7,0.4c1.2,0,2.5-0.1,3.7-0.4
						c0-0.1,0.1-0.1,0.1-0.2c0.2-0.5,0.4-1.1,0.5-1.8C44,267.7,41,267.7,38.2,266.9z"/>
				</g>
			</g>
			<g>
				<path class="st17" d="M42.8,226.8L42.8,226.8c-0.9,0-1.6-0.7-1.6-1.5v-7.1c0-0.8,0.7-1.5,1.5-1.5l0,0c0.8,0,1.5,0.7,1.5,1.5v7.1
					C44.3,226.1,43.6,226.8,42.8,226.8z"/>
				<path class="st17" d="M53.8,228.8L53.8,228.8c-0.8-0.4-1.1-1.3-0.7-2.1l3.4-6.2c0.4-0.7,1.3-1,2.1-0.6l0,0c0.7,0.4,1,1.3,0.6,2
					l-3.4,6.2C55.5,228.9,54.6,229.2,53.8,228.8z"/>
				<path class="st17" d="M31.7,228.8L31.7,228.8c0.8-0.4,1.1-1.3,0.7-2.1l-3.4-6.2c-0.4-0.7-1.3-1-2.1-0.6l0,0
					c-0.7,0.4-1,1.3-0.6,2l3.4,6.2C30,228.9,30.9,229.2,31.7,228.8z"/>
				<path class="st17" d="M23.5,237.1L23.5,237.1c-0.2,0.8-1,1.4-1.8,1.2l-7.1-1.5c-0.8-0.2-1.4-1-1.2-1.8l0,0
					c0.2-0.8,1-1.3,1.8-1.2l7.1,1.5C23.1,235.4,23.6,236.2,23.5,237.1z"/>
				<path class="st17" d="M23.1,248.3L23.1,248.3c-0.2-0.8-1.1-1.3-1.9-1.1l-6.9,2c-0.8,0.2-1.3,1.1-1,1.9l0,0
					c0.2,0.8,1.1,1.3,1.9,1l6.9-2C22.9,250,23.3,249.1,23.1,248.3z"/>
				<path class="st17" d="M62,237.1L62,237.1c0.2,0.8,1,1.4,1.8,1.2l7.1-1.5c0.8-0.2,1.4-1,1.2-1.8l0,0c-0.2-0.8-1-1.3-1.8-1.2
					l-7.1,1.5C62.4,235.4,61.8,236.2,62,237.1z"/>
				<path class="st17" d="M62.4,248.3L62.4,248.3c0.2-0.8,1.1-1.3,1.9-1.1l6.9,2c0.8,0.2,1.3,1.1,1,1.9l0,0c-0.2,0.8-1.1,1.3-1.9,1
					l-6.9-2C62.6,250,62.2,249.1,62.4,248.3z"/>
			</g>
		</g>
	</g>
</g>
</svg>
